<svg xmlns="http://www.w3.org/2000/svg" viewBox="0 0 64 64" width="50px" height="50px"><path fill="#72caaf" d="M13,55c-1.103,0-2-0.897-2-2c0-0.503,0.025-1.023,0.08-1.608C11.028,51.272,11,51.139,11,51V14.651 C8.611,13.817,7,11.542,7,9c0-3.309,2.692-6,6-6c0.425,0,0.856,0.045,1.281,0.133c2.362,0.493,4.222,2.429,4.63,4.818 c0.498,2.917-1.153,5.74-3.925,6.711l0.014,26.797c2.825-3.593,6.917-6.064,11.44-6.862l6.426-1.134 c5.764-1.017,10.368-5.343,11.729-11.021c-2.555-1.088-3.989-3.792-3.495-6.544c0.423-2.357,2.275-4.271,4.608-4.762 C46.136,11.046,46.571,11,47,11c3.309,0,6,2.692,6,6c0,2.695-1.823,5.069-4.434,5.773c-1.5,7.544-7.407,13.289-15.005,14.63 l-6.426,1.134C20.104,39.777,15,45.86,15,53C15,54.103,14.103,55,13,55z"></path><path fill="#85cbf8" d="M13 49A6 6 0 1 0 13 61A6 6 0 1 0 13 49Z"></path><path fill="#8d6c9f" d="M47 10c-.5 0-1 .05-1.5.16-2.73.57-4.89 2.81-5.39 5.56-.52 2.92.82 5.79 3.3 7.27-1.49 4.9-5.61 8.59-10.72 9.49l-6.42 1.13C22.38 34.3 18.8 36.15 16 38.86V15.33c2.82-1.34 4.43-4.39 3.9-7.55-.48-2.79-2.65-5.05-5.42-5.63C13.99 2.05 13.49 2 13 2c-1.87 0-3.63.73-4.95 2.05S6 7.13 6 9c0 2.72 1.58 5.18 4 6.33v33.35C7.64 49.8 6 52.21 6 55c0 3.86 3.14 7 7 7s7-3.14 7-7c0-2.54-1.36-4.78-3.4-6 1.47-4.82 5.53-8.56 10.71-9.48l6.42-1.13c7.82-1.38 13.94-7.18 15.74-14.86C52.17 22.52 54 19.92 54 17 54 13.14 50.86 10 47 10zM18 55c0 2.76-2.24 5-5 5s-5-2.24-5-5c0-1.63.79-3.09 2-4 .58-.44 1.26-.75 2-.9.32-.07.66-.1 1-.1.43 0 .86.06 1.26.16.69.18 1.33.5 1.87.94C17.27 52.02 18 53.42 18 55zM48.31 21.81c-.36.09-.61.4-.68.76-1.43 6.99-6.98 12.57-14.24 13.85l-6.43 1.13c-5.87 1.04-10.49 5.24-12.22 10.67C14.19 48.08 13.6 48 13 48c-.34 0-.67.02-1 .08V14.65c0-.42-.26-.79-.66-.93C9.39 13.03 8 11.18 8 9c0-2.76 2.24-5 5-5 .35 0 .71.04 1.08.11 1.95.41 3.51 2.04 3.84 4.01.44 2.55-1.06 4.83-3.27 5.6C14.26 13.86 14 14.23 14 14.65v28.37c0 .31.25.49.5.49.15 0 .31-.07.42-.23 2.6-3.95 6.74-6.82 11.69-7.7l6.43-1.13c6.27-1.11 11.1-5.81 12.53-11.77.11-.46-.15-.93-.58-1.12-2.02-.89-3.34-3.05-2.91-5.48.35-1.95 1.9-3.56 3.83-3.97C46.28 12.04 46.65 12 47 12c2.76 0 5 2.24 5 5C52 19.31 50.43 21.23 48.31 21.81zM46 7c.552 0 1-.448 1-1V4c0-.552-.448-1-1-1s-1 .448-1 1v2C45 6.552 45.448 7 46 7zM60 17h-2c-.552 0-1 .448-1 1s.448 1 1 1h2c.552 0 1-.448 1-1S60.552 17 60 17zM56.606 7.394c-.391-.391-1.023-.391-1.414 0l-1.414 1.414c-.391.391-.391 1.023 0 1.414.195.195.451.293.707.293s.512-.098.707-.293l1.414-1.414C56.997 8.417 56.997 7.784 56.606 7.394zM40.578 7.249c.157.39.532.626.928.626.125 0 .251-.024.374-.073.512-.207.76-.79.553-1.302l-.75-1.854c-.207-.512-.789-.757-1.302-.553-.512.207-.76.79-.553 1.302L40.578 7.249zM57.5 14.432l1.854-.75c.512-.207.76-.79.553-1.302-.207-.512-.789-.758-1.302-.553l-1.854.75c-.512.207-.76.79-.553 1.302.157.39.532.626.928.626C57.251 14.505 57.378 14.481 57.5 14.432zM50.298 7.875c.127.054.26.08.39.08.389 0 .759-.229.921-.61l.781-1.841c.216-.508-.021-1.096-.53-1.311-.508-.215-1.095.021-1.311.53l-.781 1.841C49.553 7.072 49.79 7.659 50.298 7.875z"></path></svg>