<svg xmlns="http://www.w3.org/2000/svg" viewBox="0 0 64 64" width="50px" height="50px"><rect width="14" height="18" x="5" y="41" fill="#f9dd8f"></rect><rect width="14" height="25" x="45" y="34" fill="#85cbf8"></rect><rect width="14" height="35" x="25" y="24" fill="#72caaf"></rect><path fill="#8d6c9f" d="M19,60H5c-0.552,0-1-0.448-1-1V41c0-0.552,0.448-1,1-1h14c0.552,0,1,0.448,1,1v18 C20,59.552,19.552,60,19,60z M6,58h12V42H6V58z"></path><path fill="#8d6c9f" d="M59,60H45c-0.553,0-1-0.448-1-1V34c0-0.552,0.447-1,1-1h14c0.553,0,1,0.448,1,1v25 C60,59.552,59.553,60,59,60z M46,58h12V35H46V58z"></path><path fill="#8d6c9f" d="M39,60H25c-0.552,0-1-0.448-1-1V24c0-0.552,0.448-1,1-1h14c0.553,0,1,0.448,1,1v35 C40,59.552,39.553,60,39,60z M26,58h12V25H26V58z"></path><path fill="#8d6c9f" d="M38,11c-0.256,0-0.512-0.098-0.707-0.293L32,5.414l-5.293,5.293c-0.391,0.391-1.023,0.391-1.414,0 s-0.391-1.023,0-1.414l5.888-5.888c0.451-0.452,1.187-0.452,1.638,0l5.888,5.888c0.391,0.391,0.391,1.023,0,1.414 C38.512,10.902,38.256,11,38,11z"></path><path fill="#8d6c9f" d="M32,20c-0.552,0-1-0.448-1-1V5c0-0.552,0.448-1,1-1s1,0.448,1,1v14C33,19.552,32.552,20,32,20z"></path><path fill="#8d6c9f" d="M58,21c-0.256,0-0.512-0.098-0.707-0.293L52,15.414l-5.293,5.293c-0.391,0.391-1.023,0.391-1.414,0 s-0.391-1.023,0-1.414l5.888-5.888c0.453-0.449,1.184-0.446,1.633-0.006l5.894,5.894c0.391,0.391,0.391,1.023,0,1.414 C58.512,20.902,58.256,21,58,21z"></path><path fill="#8d6c9f" d="M52,30c-0.553,0-1-0.448-1-1V15c0-0.552,0.447-1,1-1s1,0.448,1,1v14C53,29.552,52.553,30,52,30z"></path><path fill="#8d6c9f" d="M18,28c-0.256,0-0.512-0.098-0.707-0.293L12,22.414l-5.293,5.293c-0.391,0.391-1.023,0.391-1.414,0 s-0.391-1.023,0-1.414l5.888-5.888c0.451-0.452,1.187-0.452,1.638,0l5.888,5.888c0.391,0.391,0.391,1.023,0,1.414 C18.512,27.902,18.256,28,18,28z"></path><path fill="#8d6c9f" d="M12,37c-0.552,0-1-0.448-1-1V22c0-0.552,0.448-1,1-1s1,0.448,1,1v14C13,36.552,12.552,37,12,37z"></path><rect width="4" height="23" x="54" y="35" fill="#7bbeeb"></rect><rect width="4" height="16" x="14" y="42" fill="#efc88e"></rect><path fill="#8d6c9f" d="M56,49c0-0.553-0.447-1-1-1h-2c-0.553,0-1,0.447-1,1s0.447,1,1,1h2C55.553,50,56,49.553,56,49z"></path><path fill="#8d6c9f" d="M56,54c0-0.553-0.447-1-1-1h-2c-0.553,0-1,0.447-1,1s0.447,1,1,1h2C55.553,55,56,54.553,56,54z"></path><path fill="#8d6c9f" d="M56,44c0-0.553-0.447-1-1-1h-2c-0.553,0-1,0.447-1,1c0,0.553,0.447,1,1,1h2 C55.553,45,56,44.553,56,44z"></path><path fill="#8d6c9f" d="M56,39c0-0.553-0.447-1-1-1h-2c-0.553,0-1,0.447-1,1c0,0.553,0.447,1,1,1h2 C55.553,40,56,39.553,56,39z"></path><g><path fill="#8d6c9f" d="M16,45c0-0.553-0.447-1-1-1h-2c-0.553,0-1,0.447-1,1s0.447,1,1,1h2C15.553,46,16,45.553,16,45z"></path><path fill="#8d6c9f" d="M16,50c0-0.553-0.447-1-1-1h-2c-0.553,0-1,0.447-1,1s0.447,1,1,1h2C15.553,51,16,50.553,16,50z"></path><path fill="#8d6c9f" d="M16,55c0-0.553-0.447-1-1-1h-2c-0.553,0-1,0.447-1,1s0.447,1,1,1h2C15.553,56,16,55.553,16,55z"></path></g><g><rect width="4" height="33" x="26" y="25" fill="#97e0bb"></rect></g></svg>