<svg xmlns="http://www.w3.org/2000/svg" viewBox="0 0 64 64" width="50px" height="50px"><path fill="#c2cde7" d="M29.284,58.443c1.497-1.46,3.935-1.46,5.432,0C36.338,60.025,38.555,61,41,61 c3.918,0,7.242-2.508,8.478-6.002c0.008,0,0.015,0.002,0.022,0.002c2.485,0,4.5-2.015,4.5-4.5c0-0.605-0.123-1.18-0.34-1.706 C56.723,48.047,59,45.293,59,42c0-1.219-0.313-2.365-0.861-3.364C59.871,37.362,61,35.315,61,33c0-3.324-2.319-6.1-5.425-6.816 C56.458,25.209,57,23.919,57,22.5c0-3.038-2.462-5.5-5.5-5.5c-0.036,0-0.072,0.005-0.108,0.005c0.544-1.06,0.762-2.316,0.492-3.64 c-0.433-2.12-2.155-3.835-4.277-4.255c-1.325-0.262-2.581-0.04-3.639,0.511c0.087-0.841,0.005-1.731-0.33-2.653 c-0.741-2.04-2.57-3.58-4.717-3.899c-1.91-0.284-3.683,0.333-4.956,1.49c-1.107,1.006-2.824,1.006-3.931,0 c-1.273-1.157-3.045-1.774-4.956-1.49c-2.147,0.319-3.976,1.859-4.717,3.899c-0.335,0.922-0.416,1.812-0.33,2.653 c-1.058-0.55-2.314-0.773-3.639-0.511c-2.123,0.421-3.845,2.135-4.277,4.255c-0.27,1.325-0.052,2.58,0.492,3.64 C12.572,17.005,12.536,17,12.5,17C9.462,17,7,19.462,7,22.5c0,1.419,0.542,2.709,1.425,3.684C5.319,26.9,3,29.676,3,33 c0,2.315,1.129,4.362,2.861,5.636C5.313,39.635,5,40.781,5,42c0,3.293,2.277,6.047,5.34,6.794C10.123,49.32,10,49.895,10,50.5 c0,2.485,2.015,4.5,4.5,4.5c0.008,0,0.015-0.002,0.022-0.002C15.758,58.492,19.082,61,23,61C25.445,61,27.662,60.025,29.284,58.443z"></path><path fill="#b5c4e0" d="M61,33c0-3.324-2.319-6.1-5.425-6.816C56.458,25.209,57,23.919,57,22.5c0-3.038-2.462-5.5-5.5-5.5 c-0.036,0-0.072,0.005-0.108,0.005c0.544-1.06,0.762-2.316,0.492-3.64c-0.433-2.12-2.155-3.835-4.277-4.255 c-1.325-0.262-2.581-0.039-3.639,0.511c0.087-0.841,0.005-1.731-0.33-2.653c-0.741-2.04-2.57-3.58-4.717-3.899 c-1.91-0.284-3.683,0.333-4.956,1.49C33.412,5.062,32.706,5.313,32,5.313v52.034c0.984,0,1.968,0.365,2.716,1.095 C36.338,60.025,38.555,61,41,61c3.918,0,7.242-2.508,8.478-6.002c0.008,0,0.015,0.002,0.022,0.002c2.485,0,4.5-2.015,4.5-4.5 c0-0.605-0.123-1.18-0.34-1.706C56.723,48.047,59,45.293,59,42c0-1.219-0.313-2.365-0.861-3.364C59.871,37.362,61,35.315,61,33z"></path><path fill="#8d6c9f" d="M62,33c0-3.254-1.925-6.099-4.824-7.341C57.713,24.699,58,23.614,58,22.5 c0-3.142-2.241-5.77-5.208-6.371c0.25-0.957,0.276-1.961,0.072-2.964c-0.514-2.514-2.548-4.538-5.063-5.036 c-0.965-0.191-1.929-0.171-2.85,0.058c-0.063-0.529-0.188-1.05-0.373-1.561c-0.87-2.394-3.032-4.178-5.51-4.547 c-2.106-0.312-4.214,0.32-5.775,1.739c-0.725,0.659-1.861,0.66-2.586,0c-1.56-1.418-3.665-2.051-5.775-1.739 c-2.478,0.369-4.64,2.153-5.51,4.546c-0.186,0.511-0.31,1.032-0.373,1.561c-0.923-0.228-1.887-0.249-2.85-0.058 c-2.515,0.498-4.549,2.522-5.063,5.037c-0.204,1.002-0.178,2.007,0.072,2.963C8.241,16.73,6,19.358,6,22.5 c0,1.114,0.287,2.199,0.824,3.159C3.925,26.901,2,29.746,2,33c0,2.249,0.967,4.403,2.621,5.911C4.213,39.885,4,40.938,4,42 c0,3.342,2.052,6.273,5.102,7.451C9.034,49.796,9,50.146,9,50.5c0,2.78,2.073,5.085,4.82,5.446C15.388,59.593,18.997,62,23,62 c2.624,0,5.104-1.009,6.982-2.841c1.112-1.085,2.923-1.085,4.035,0C35.896,60.991,38.376,62,41,62c3.999,0,7.604-2.401,9.174-6.041 C52.89,55.625,55,53.305,55,50.5c0-0.354-0.034-0.704-0.102-1.049C57.948,48.273,60,45.342,60,42c0-1.062-0.213-2.115-0.621-3.089 C61.033,37.403,62,35.249,62,33z M57.262,39.118C57.745,39.997,58,40.993,58,42c0,2.771-1.882,5.165-4.577,5.822 c-0.283,0.069-0.522,0.258-0.654,0.518c-0.132,0.259-0.145,0.564-0.034,0.833C52.911,49.602,53,50.048,53,50.5 c0,1.93-1.569,3.5-3.459,3.5H49.54c-0.442-0.032-0.856,0.243-1.005,0.665C47.406,57.855,44.378,60,41,60 c-2.099,0-4.083-0.807-5.586-2.273C34.473,56.809,33.236,56.35,32,56.35s-2.473,0.459-3.414,1.377C27.083,59.193,25.099,60,23,60 c-3.378,0-6.406-2.145-7.535-5.336c-0.148-0.419-0.556-0.684-1-0.664C12.552,53.981,11,52.418,11,50.5 c0-0.453,0.089-0.899,0.265-1.326c0.111-0.27,0.099-0.574-0.034-0.834c-0.132-0.26-0.371-0.449-0.654-0.518 C7.882,47.165,6,44.771,6,42c0-1.007,0.255-2.003,0.738-2.882c0.241-0.439,0.12-0.99-0.284-1.287 c-1.288-0.947-2.113-2.317-2.364-3.849C4.597,33.935,5,33.521,5,33v-2c0-0.293-0.131-0.551-0.333-0.734 c0.783-1.532,2.202-2.697,3.982-3.107c0.345-0.08,0.623-0.336,0.729-0.675s0.025-0.708-0.212-0.971C8.414,24.683,8,23.612,8,22.5 c0-2.481,2.019-4.5,4.485-4.5c0.02,0.001,0.09,0.005,0.109,0.005c0.393,0.001,0.679-0.175,0.864-0.473s0.2-0.671,0.04-0.984 c-0.473-0.921-0.612-1.953-0.402-2.983c0.354-1.735,1.757-3.131,3.492-3.475c1.033-0.206,2.065-0.061,2.983,0.417 c0.327,0.171,0.72,0.148,1.023-0.06c0.304-0.207,0.47-0.563,0.433-0.929c-0.078-0.763,0.012-1.485,0.275-2.209 c0.623-1.713,2.163-2.989,3.924-3.251c1.516-0.224,3.021,0.227,4.136,1.24c1.481,1.346,3.799,1.346,5.277,0 c1.116-1.014,2.623-1.465,4.136-1.241c1.761,0.262,3.301,1.538,3.924,3.251c0.263,0.724,0.353,1.446,0.275,2.209 c-0.038,0.366,0.128,0.723,0.433,0.929c0.304,0.208,0.696,0.231,1.023,0.06c0.918-0.477,1.949-0.623,2.983-0.417 c1.734,0.343,3.138,1.74,3.492,3.474c0.21,1.031,0.071,2.062-0.402,2.983c-0.16,0.312-0.145,0.686,0.04,0.984 c0.185,0.298,0.491,0.476,0.864,0.473L51.5,18c2.481,0,4.5,2.019,4.5,4.5c0,1.112-0.414,2.183-1.167,3.014 c-0.238,0.263-0.319,0.632-0.212,0.971s0.384,0.595,0.729,0.675c1.78,0.41,3.199,1.575,3.982,3.107C59.131,30.449,59,30.707,59,31 v2c0,0.521,0.403,0.935,0.911,0.982c-0.251,1.531-1.076,2.901-2.364,3.849C57.142,38.127,57.021,38.678,57.262,39.118z"></path><path fill="#8d6c9f" d="M9 30c-.552 0-1 .448-1 1v2c0 .552.448 1 1 1s1-.448 1-1v-2C10 30.448 9.552 30 9 30zM14 30c-.552 0-1 .448-1 1v2c0 .552.448 1 1 1s1-.448 1-1v-2C15 30.448 14.552 30 14 30zM19 30c-.552 0-1 .448-1 1v2c0 .552.448 1 1 1s1-.448 1-1v-2C20 30.448 19.552 30 19 30zM24 30c-.552 0-1 .448-1 1v2c0 .552.448 1 1 1s1-.448 1-1v-2C25 30.448 24.552 30 24 30zM40 30c-.552 0-1 .448-1 1v2c0 .552.448 1 1 1s1-.448 1-1v-2C41 30.448 40.552 30 40 30zM45 30c-.552 0-1 .448-1 1v2c0 .552.448 1 1 1s1-.448 1-1v-2C46 30.448 45.552 30 45 30zM50 30c-.552 0-1 .448-1 1v2c0 .552.448 1 1 1s1-.448 1-1v-2C51 30.448 50.552 30 50 30zM55 30c-.552 0-1 .448-1 1v2c0 .552.448 1 1 1s1-.448 1-1v-2C56 30.448 55.552 30 55 30z"></path><path fill="#fff" d="M32.04 41A2 2 0 1 0 32.04 45 2 2 0 1 0 32.04 41zM31.04 37.066V38c0 .552.448 1 1 1s1-.448 1-1v-1.571l.88-13.355c.041-.533-.144-1.064-.507-1.456-.284-.307-.667-.49-1.072-.557C32.245 21.03 32.147 21 32.04 21c-.082 0-.155.028-.232.047-.459.042-.903.226-1.222.571-.363.392-.548.923-.508 1.445l.923 14.003H31.04z"></path></svg>