<svg xmlns="http://www.w3.org/2000/svg" viewBox="0 0 64 64" width="50px" height="50px"><rect width="20" height="16" x="21" y="5" fill="#85cbf8" rx="2" ry="2"></rect><rect width="16" height="18" x="1" y="35" fill="#72caaf" rx="2" ry="2"></rect><path fill="#5dbc9d" d="M1.88,53h15s0-.26,0-.39a4,4,0,0,0-4-3.61h-8A4,4,0,0,0,1,52,1,1,0,0,0,1.88,53Z"></path><rect width="16" height="18" x="23" y="41" fill="#72caaf" rx="2" ry="2"></rect><path fill="#5dbc9d" d="M24,59H39s0-.26,0-.39A4,4,0,0,0,35,55H27a4,4,0,0,0-3.87,3A1,1,0,0,0,24,59Z"></path><rect width="16" height="18" x="45" y="35" fill="#72caaf" rx="2" ry="2"></rect><path fill="#5dbc9d" d="M46,53H61s0-.26,0-.39A4,4,0,0,0,57,49H49a4,4,0,0,0-3.87,3A1,1,0,0,0,46,53Z"></path><path fill="#7bbeeb" d="M22,21H41s0-.26,0-.39A4,4,0,0,0,37,17H25a4,4,0,0,0-3.87,3A1,1,0,0,0,22,21Z"></path><path fill="#8d6c9f" d="M59,34H54V31a3,3,0,0,0-3-3H32V22h7a3,3,0,0,0,3-3V7a3,3,0,0,0-3-3H23a3,3,0,0,0-3,3V19a3,3,0,0,0,3,3h7v6H11a3,3,0,0,0-3,3v3H3a3,3,0,0,0-3,3V51a3,3,0,0,0,3,3H15a3,3,0,0,0,3-3V37a3,3,0,0,0-3-3H10V31a1,1,0,0,1,1-1H30V40H25a3,3,0,0,0-3,3V57a3,3,0,0,0,3,3H37a3,3,0,0,0,3-3V43a3,3,0,0,0-3-3H32V30H51a1,1,0,0,1,1,1v3H47a3,3,0,0,0-3,3V51a3,3,0,0,0,3,3H59a3,3,0,0,0,3-3V37A3,3,0,0,0,59,34ZM22,19V7a1,1,0,0,1,1-1H39a1,1,0,0,1,1,1V19a1,1,0,0,1-1,1H23A1,1,0,0,1,22,19ZM16,37V51a1,1,0,0,1-1,1H3a1,1,0,0,1-1-1V37a1,1,0,0,1,1-1H15A1,1,0,0,1,16,37Zm22,6V57a1,1,0,0,1-1,1H25a1,1,0,0,1-1-1V43a1,1,0,0,1,1-1H37A1,1,0,0,1,38,43Zm22,8a1,1,0,0,1-1,1H47a1,1,0,0,1-1-1V37a1,1,0,0,1,1-1H59a1,1,0,0,1,1,1Z"></path><path fill="#8d6c9f" d="M26 14a1 1 0 0 0-1 1v2a1 1 0 0 0 2 0V15A1 1 0 0 0 26 14zM32 17V15a1 1 0 0 0-2 0v2a1 1 0 0 0 2 0zM36 18a1 1 0 0 0 1-1V15a1 1 0 0 0-2 0v2A1 1 0 0 0 36 18zM26 55a1 1 0 0 0 1 1h8a1 1 0 0 0 0-2H27A1 1 0 0 0 26 55zM4 49a1 1 0 0 0 1 1h8a1 1 0 0 0 0-2H5A1 1 0 0 0 4 49zM57 48H49a1 1 0 0 0 0 2h8a1 1 0 0 0 0-2z"></path></svg>