<svg xmlns="http://www.w3.org/2000/svg" viewBox="0 0 64 64" width="50px" height="50px"><path fill="#f9e3ae" d="M32.26,2.35l4.58,3.71a2,2,0,0,0,1.57.42l5.82-.92a2,2,0,0,1,2.18,1.26l2.11,5.5a2,2,0,0,0,1.15,1.15l5.5,2.11a2,2,0,0,1,1.26,2.18l-.92,5.82a2,2,0,0,0,.42,1.57l3.71,4.58a2,2,0,0,1,0,2.52l-3.71,4.58a2,2,0,0,0-.42,1.57l.92,5.82a2,2,0,0,1-1.26,2.18l-5.5,2.11a2,2,0,0,0-1.15,1.15l-2.11,5.5a2,2,0,0,1-2.18,1.26l-5.82-.92a2,2,0,0,0-1.57.42l-4.58,3.71a2,2,0,0,1-2.52,0l-4.58-3.71a2,2,0,0,0-1.57-.42l-5.82.92a2,2,0,0,1-2.18-1.26l-2.11-5.5a2,2,0,0,0-1.15-1.15l-5.5-2.11a2,2,0,0,1-1.26-2.18l.92-5.82a2,2,0,0,0-.42-1.57L2.35,32.26a2,2,0,0,1,0-2.52l3.71-4.58a2,2,0,0,0,.42-1.57l-.92-5.82a2,2,0,0,1,1.26-2.18l5.5-2.11a2,2,0,0,0,1.15-1.15l2.11-5.5a2,2,0,0,1,2.18-1.26l5.82.92a2,2,0,0,0,1.57-.42l4.58-3.71A2,2,0,0,1,32.26,2.35Z"></path><path fill="#f6d397" d="M31 12A19 19 0 1 0 31 50A19 19 0 1 0 31 12Z"></path><path fill="#6e91ce" d="M18.93,28.93V45a4,4,0,0,1-4,4H13.56L12,48.39,5.5,45.83l.56-9L1.91,30.58,7,25,7,24.93h7.89A4,4,0,0,1,18.93,28.93Z"></path><path fill="#faefde" d="M43,27.68v-.21a2.53,2.53,0,0,0-2.53-2.53H27.17l2-7.95a3.8,3.8,0,0,0-3.69-4.72h-.2L18.93,26.2v8.17l.46,13a11.94,11.94,0,0,0,3.1.25L39,46.6A2.29,2.29,0,0,0,38.81,42h-.25l1.13-.23a2.53,2.53,0,0,0,2-2.48v-.46a2.53,2.53,0,0,0-2.53-2.53l1.51-.25A2.74,2.74,0,0,0,43,33.38h0a2.74,2.74,0,0,0-2.74-2.74H39.2l1.51-.25A2.74,2.74,0,0,0,43,27.68Z"></path><path fill="#80a6dd" d="M10 25L10 48.39 5.5 45.83 6.06 36.84 1.91 30.58 6.98 25 10 25z"></path><path fill="#efd8be" d="M38.81 42.03L18.93 42.03 18.93 47.36 26.39 47.43 40.5 45.96 40.84 43.77 38.81 42.03z"></path><path fill="#8d6c9f" d="M60.42,32.89a3,3,0,0,0,0-3.78l-3.71-4.58a1,1,0,0,1-.21-.79l.92-5.82a3,3,0,0,0-1.89-3.27L50,12.54a1,1,0,0,1-.58-.58l-2.11-5.5a3,3,0,0,0-3.27-1.89l-5.82.92a1,1,0,0,1-.79-.21L32.89,1.58h0a3,3,0,0,0-3.78,0L24.53,5.29a1,1,0,0,1-.79.21l-5.82-.92a3,3,0,0,0-3.27,1.89L12.54,12a1,1,0,0,1-.58.58l-5.5,2.11a3,3,0,0,0-1.89,3.27l.92,5.82a1,1,0,0,1-.21.79L1.58,29.11a3,3,0,0,0,0,3.78l3.71,4.58a1,1,0,0,1,.21.79l-.92,5.82a3,3,0,0,0,1.89,3.27L12,49.46a1,1,0,0,1,.58.58l2.11,5.5a3,3,0,0,0,3.27,1.89l5.82-.92a1,1,0,0,1,.79.21l4.58,3.71a3,3,0,0,0,3.78,0l4.58-3.71a1,1,0,0,1,.79-.21l5.82.92a3,3,0,0,0,3.27-1.89L49.46,50a1,1,0,0,1,.58-.58l5.5-2.11a3,3,0,0,0,1.89-3.27l-.92-5.82a1,1,0,0,1,.21-.79ZM13.56,48l-.13,0a3,3,0,0,0-.75-.44l-5.5-2.11a1,1,0,0,1-.63-1.09l.92-5.82a3,3,0,0,0-.63-2.36L3.13,31.63a1,1,0,0,1,0-1.26l3.64-4.49a1,1,0,0,0,.27.05h7.9a3,3,0,0,1,3,3V45a3,3,0,0,1-3,3Zm41.6-11.79a3,3,0,0,0-.63,2.36l.92,5.82a1,1,0,0,1-.63,1.09l-5.5,2.11a3,3,0,0,0-1.73,1.73l-2.11,5.5a1,1,0,0,1-1.09.63l-5.82-.92a3,3,0,0,0-2.36.63l-4.58,3.71a1,1,0,0,1-1.26,0l-4.58-3.71a3,3,0,0,0-2.36-.63l-5.82.92a1,1,0,0,1-1.09-.63L14.67,50h.26a5,5,0,0,0,3.84-1.84,1,1,0,0,0,.36.18,12.33,12.33,0,0,0,2.82.3l.6,0L39,47.6a3.29,3.29,0,0,0,2.28-5.43,3.54,3.54,0,0,0,1.44-2.84v-.46A3.52,3.52,0,0,0,42,36.7a3.74,3.74,0,0,0,.7-6.17A3.73,3.73,0,0,0,44,27.68v-.21A3.48,3.48,0,0,0,40.47,24h-12l1.68-6.77a4.8,4.8,0,0,0-4.66-6h-.2a1,1,0,0,0-.91.59L18.27,25.24A4.91,4.91,0,0,0,14.93,24H7.5a3.81,3.81,0,0,0,0-.57l-.92-5.82a1,1,0,0,1,.63-1.09l5.5-2.11a3,3,0,0,0,1.73-1.73l2.11-5.5a1,1,0,0,1,1.09-.63l5.82.92a3,3,0,0,0,2.36-.63l4.58-3.71a1,1,0,0,1,1.26,0h0l4.58,3.71a3,3,0,0,0,2.36.63l5.82-.92a1,1,0,0,1,1.09.63l2.11,5.5a3,3,0,0,0,1.73,1.73l5.5,2.11a1,1,0,0,1,.63,1.09l-.92,5.82a3,3,0,0,0,.63,2.36l3.71,4.58a1,1,0,0,1,0,1.26ZM25.27,25.93h15.2A1.54,1.54,0,0,1,42,27.47v.21a1.74,1.74,0,0,1-1.46,1.72L39,29.65a1,1,0,0,0,.16,2h1.06a1.74,1.74,0,0,1,.29,3.46L39,35.35a1,1,0,0,0,.16,2,1.54,1.54,0,0,1,1.53,1.53v.46a1.54,1.54,0,0,1-1.23,1.5l-1.13.23a1,1,0,0,0,.2,2h.25a1.29,1.29,0,0,1,.08,2.57l-16.47,1a11.1,11.1,0,0,1-2.73-.21A4.93,4.93,0,0,0,19.93,45V28.93a5,5,0,0,0-.4-1.95,1,1,0,0,0,.31-.37L25.9,13.3a2.8,2.8,0,0,1,2.29,3.45l-1.8,7.19H25.27a1,1,0,1,0,0,2Z"></path><path fill="#8d6c9f" d="M51 30H49a1 1 0 0 0 0 2h2a1 1 0 0 0 0-2zM45.85 16.15a1 1 0 0 0-1.41 0L43 17.56A1 1 0 1 0 44.44 19l1.41-1.41A1 1 0 0 0 45.85 16.15zM48.65 27.31l1.93-.52a1 1 0 1 0-.52-1.93l-1.93.52a1 1 0 1 0 .52 1.93zM41.5 12.81a1 1 0 0 0-1.37.37l-1 1.73a1 1 0 0 0 1.73 1l1-1.73A1 1 0 0 0 41.5 12.81zM49.19 20.5a1 1 0 0 0-1.37-.37l-1.73 1a1 1 0 0 0 1 1.73l1.73-1A1 1 0 0 0 49.19 20.5zM36.44 10.72a1 1 0 0 0-1.22.71l-.52 1.93a1 1 0 1 0 1.93.52l.52-1.93A1 1 0 0 0 36.44 10.72z"></path></svg>